<svg width="3397" height="1310" viewBox="0 0 3397 1310" fill="none" xmlns="http://www.w3.org/2000/svg"><path d="M3239.6 239.6V133h52.1c6.8 0 13 1.4 18.5 4.2a32.2 32.2 0 0113.5 12.1c3.3 5.2 5 11.6 5 19 0 7.6-1.7 14-5.2 19.3-3.4 5.3-8 9.3-13.8 12.1a45 45 0 01-19.3 4h-35.7v-20h30c4 0 7.5-1.3 10.4-3.9 3-2.6 4.4-6.5 4.4-11.6 0-5.3-1.5-9-4.4-11.2a16 16 0 00-10.3-3.5h-17.5v86.1h-27.7zm68-49.3l24.3 49.3h-30.3l-22.7-49.3h28.7zm-26.3 113a113.1 113.1 0 01-81.8-33.9 113.2 113.2 0 01-33.8-81.8 113.2 113.2 0 0133.8-81.8 113.1 113.1 0 0181.8-33.8 113.1 113.1 0 0181.8 33.8 116.1 116.1 0 0133.8 81.8 113 113 0 01-33.8 81.8 113.1 113.1 0 01-81.8 33.8zm0-30.6c15.8 0 30.1-3.8 43-11.4 12.8-7.7 23.1-18 30.7-30.8a83 83 0 0011.4-42.9 85.7 85.7 0 00-85.1-85.1 85.7 85.7 0 00-73.6 42.3 82.2 82.2 0 00-11.3 42.8 83 83 0 0011.4 43 87.2 87.2 0 0030.8 30.7 82.7 82.7 0 0042.7 11.4zM170 72.9l126.3 396.7h4.8L427.6 72.9h122.3L370 595H227.7L47.4 72.9h122.7zM577 595V72.9h351.8v91H687.3v124.4h223.3v91H687.3V504h242.4v91H577zm840.4-522.1V595H1322l-227.2-328.6h-3.8V595H980.6V72.9h96.9l225.3 328.3h4.6V73h109.9zm35.4 91v-91h428.8v91h-159.8V595h-109.1V163.9h-159.9zM1916.3 595V72.9H2268v91h-241.4v124.4H2250v91h-223.3V504H2269v91h-352.8zm403.7 0V72.9h110.3v431h223.9V595H2320zm474.7 0h-118.3l180.3-522.1h142.2L3179 595h-118.3l-130.8-402.8h-4l-131 402.8zm-7.4-205.2h279.4v86.1h-279.4v-86.1zM660.1 923.7H548.4c-2-14.5-6.2-27.3-12.5-38.5a98 98 0 00-24.2-29.1c-9.8-8-21.2-14.1-34.1-18.4a130.7 130.7 0 00-41.6-6.3 124 124 0 00-70.6 20.1 128.7 128.7 0 00-46.7 58.1c-11 25.4-16.6 56.1-16.6 92.3 0 37.3 5.6 68.5 16.6 93.9a127.1 127.1 0 0047 57.3c20 13 43.2 19.4 69.5 19.4 14.8 0 28.5-2 41-5.9a98.4 98.4 0 0058.4-44.9 108.3 108.3 0 0013.8-37.2l111.7.5a208.4 208.4 0 01-67.8 128.8 217.4 217.4 0 01-68.9 41.3c-26.5 10-56.5 15-90 15-46.5 0-88.2-10.5-124.9-31.6a224.5 224.5 0 01-86.7-91.5c-21-40-31.6-88.3-31.6-145 0-57 10.7-105.4 32.1-145.4 21.5-40 50.5-70.4 87.2-91.3 36.8-21 78-31.6 124-31.6 30.2 0 58.2 4.3 84 12.8 26 8.5 49.1 20.9 69.2 37.2 20 16.1 36.3 36 49 59.4 12.7 23.5 20.8 50.3 24.4 80.6zm153.6-182.8V1263H703.4V740.9h110.3zm55 522.1V740.9h206c39.6 0 73.3 7.5 101.2 22.7 27.9 15 49.1 35.7 63.7 62.4a185.3 185.3 0 0122.2 91.8c0 34.7-7.5 65.3-22.4 91.8a154.7 154.7 0 01-65 62c-28.3 14.7-62.4 22.1-102.5 22.1H940.6v-88.5H1054c21.3 0 38.8-3.6 52.5-11a72.7 72.7 0 0031.2-30.8 96.6 96.6 0 0010.4-45.6c0-17.3-3.5-32.5-10.4-45.4a69.8 69.8 0 00-31.2-30.3c-13.9-7.3-31.6-11-53-11h-74.4V1263H868.7zM1620 740.9h110.4v339c0 38.1-9 71.4-27.3 100a182.4 182.4 0 01-75.7 66.8 256.2 256.2 0 01-113.4 23.7c-43.4 0-81.3-8-113.7-23.7a182.4 182.4 0 01-75.8-66.8c-18-28.6-27-61.9-27-100V741H1408v329.6c0 19.9 4.3 37.6 13 53a94.8 94.8 0 0037.2 36.5c16 8.8 34.6 13.3 55.9 13.3 21.4 0 40-4.5 55.8-13.3a93 93 0 0037-36.5 105 105 0 0013.2-53V741zm145.5 91v-91h428.8v91h-159.9V1263h-109V831.9h-160zm489.7 431.1H2137l180.3-522.1h142.2l180 522.1h-118.3l-130.8-402.8h-4L2255.2 1263zm-7.4-205.2h279.4v86.1H2248v-86.1zm334.9-226v-91h428.8v91h-159.9V1263h-109V831.9h-160z" fill="#000"/></svg>